<?xml version="1.0" encoding="utf-8"?>
<!-- Generator: Adobe Illustrator 21.0.2, SVG Export Plug-In . SVG Version: 6.00 Build 0)  -->
<svg version="1.1" id="Layer_1" xmlns="http://www.w3.org/2000/svg" xmlns:xlink="http://www.w3.org/1999/xlink" x="0px" y="0px"
	 viewBox="0 0 250 250" style="enable-background:new 0 0 250 250;" xml:space="preserve">
<style type="text/css">
	.st0{fill:#BFBA00;}
	.st1{fill:#7F7C00;}
	.st2{fill:#E0CF00;}
	.st3{font-family:'Lato-Regular';}
	.st4{font-size:30.9081px;}
</style>
<g>
	<path class="st0" d="M213.5,2c19,0,34.5,15.5,34.5,34.5v177c0,19-15.5,34.5-34.5,34.5h-177C17.5,248,2,232.5,2,213.5v-177
		C2,17.5,17.5,2,36.5,2H213.5 M213.5,0h-177C16.4,0,0,16.4,0,36.5v177C0,233.6,16.4,250,36.5,250h177c20.1,0,36.5-16.4,36.5-36.5
		v-177C250,16.4,233.6,0,213.5,0L213.5,0z"/>
</g>
<path class="st0" d="M64.5,219.6H45.6c-6.1,0-11.1-5-11.1-11.1V35.7c0-6.1,5-11.1,11.1-11.1h73.7c7.5,0,12.9,7.3,10.6,14.5
	L75.1,211.8C73.7,216.4,69.4,219.6,64.5,219.6z"/>
<circle class="st1" cx="121.5" cy="75.6" r="31.1"/>
<path class="st2" d="M128,45.1l-18.7,59c3.8,1.6,7.9,2.5,12.2,2.5c17.2,0,31.1-13.9,31.1-31.1C152.6,60.6,142.1,48.1,128,45.1z"/>
<text transform="matrix(1 0 0 1 113.2676 142.9536)"><tspan x="0" y="0" class="st0 st3 st4">Fuzzy    </tspan><tspan x="-19.4" y="37.1" class="st0 st3 st4">Targeting</tspan><tspan x="-25.8" y="74.2" class="st0 st3 st4">Systems   </tspan></text>
</svg>
