<?xml version="1.0" encoding="utf-8"?>
<!-- Generator: Adobe Illustrator 21.0.2, SVG Export Plug-In . SVG Version: 6.00 Build 0)  -->
<svg version="1.1" id="Layer_1" xmlns="http://www.w3.org/2000/svg" xmlns:xlink="http://www.w3.org/1999/xlink" x="0px" y="0px"
	 viewBox="0 0 250 250" style="enable-background:new 0 0 250 250;" xml:space="preserve">
<style type="text/css">
	.st0{fill:#D1BE51;}
	.st1{fill:#7A7A7A;}
	.st2{fill:#008DAB;}
	.st3{fill:#FFF31D;}
</style>
<g>
	<path class="st0" d="M213.5,2c19,0,34.5,15.5,34.5,34.5v177c0,19-15.5,34.5-34.5,34.5h-177C17.5,248,2,232.5,2,213.5v-177
		C2,17.5,17.5,2,36.5,2H213.5 M213.5,0h-177C16.4,0,0,16.4,0,36.5v177C0,233.6,16.4,250,36.5,250h177c20.1,0,36.5-16.4,36.5-36.5
		v-177C250,16.4,233.6,0,213.5,0L213.5,0z"/>
</g>
<circle class="st1" cx="160" cy="60" r="28.7"/>
<polygon class="st2" points="171.5,20.5 28.5,20.5 28.5,229.5 77.7,229.5 "/>
<g>
	<path class="st0" d="M65.5,96.1h16.9l0,3.8H69.8v7.3h11.4v3.8H69.8v10.3h-4.2V96.1z"/>
	<path class="st0" d="M103.3,102.1v19.2h-4.1v-3.7c-1.2,2.5-3.5,3.8-6.8,3.9c-2.2,0-3.9-0.7-5.1-2c-1.2-1.3-1.9-3.1-1.9-5.4v-11.9
		h4.1v10.8c0,1.4,0.4,2.6,1.2,3.4c0.8,0.8,1.9,1.2,3.3,1.2c1.6,0,2.9-0.6,3.8-1.7c0.9-1.1,1.4-2.5,1.4-4.3v-9.4H103.3z"/>
	<path class="st0" d="M108.3,102.1l15.7,0v2.8l-10.9,13l11.3,0v3.4l-16.4,0v-2.8l10.9-13h-10.6V102.1z"/>
	<path class="st0" d="M127.7,102.1l15.7,0v2.8l-10.9,13l11.3,0v3.4l-16.4,0v-2.8l10.9-13h-10.6V102.1z"/>
	<path class="st0" d="M153.2,127.3c-1.1,0.8-2.3,1.1-3.7,1.1c-0.9,0-1.7-0.1-2.4-0.4c-0.7-0.3-1.4-0.7-2.1-1.2l1.8-3.2
		c0.5,0.3,0.9,0.6,1.3,0.7c0.4,0.1,0.8,0.2,1.2,0.2c1.3,0,2.3-0.7,2.9-2.1l0.6-1.4l-7.9-18.9h4.3l5.7,14.5l5.3-14.5h4.1l-8.7,21.8
		C155,125.4,154.2,126.6,153.2,127.3z"/>
	<path class="st0" d="M62.5,139.3h20.2v3.8h-8v21.4h-4.2v-21.4h-8V139.3z"/>
	<path class="st0" d="M97.6,164.5v-2.3c-1.4,1.7-3.5,2.5-6.3,2.5c-1.3,0-2.5-0.3-3.5-0.8c-1-0.5-1.8-1.2-2.4-2.1s-0.8-1.9-0.8-3
		c0-1.8,0.6-3.1,1.9-4.2c1.3-1,3-1.6,5.3-1.6h5.8v-0.6c0-1.2-0.4-2.2-1.2-2.8c-0.8-0.7-1.9-1-3.4-1c-1.8,0-3.7,0.6-5.7,1.9l-1.7-2.9
		c1.5-0.9,2.8-1.5,3.9-1.9c1.2-0.4,2.6-0.6,4.3-0.6c2.4,0,4.3,0.6,5.7,1.8c1.3,1.2,2,2.8,2.1,4.9l0,12.6H97.6z M95.8,160.4
		c1-0.7,1.6-1.6,1.7-2.6V156h-5.2c-1.4,0-2.4,0.2-3,0.6c-0.6,0.4-1,1.1-1,2c0,0.9,0.3,1.6,1,2.1c0.7,0.5,1.6,0.8,2.7,0.8
		C93.6,161.4,94.8,161.1,95.8,160.4z"/>
	<path class="st0" d="M114,146.2c1.1-0.7,2.4-1,4-1v4c-1.9-0.1-3.4,0.3-4.6,1.3s-1.8,2.3-2,4v10h-4.1v-19.2h4.1v3.8
		C112,147.9,112.9,146.9,114,146.2z"/>
	<path class="st0" d="M138.7,145.3v17.3c0,1.8-0.4,3.4-1.2,4.8c-0.8,1.3-2,2.4-3.5,3.1c-1.5,0.7-3.2,1.1-5.2,1.1
		c-2.8,0-5.5-0.8-8-2.5l1.8-3c0.9,0.7,1.9,1.2,2.9,1.6c1,0.3,2,0.5,3.1,0.5c1.8,0,3.3-0.5,4.4-1.5s1.6-2.3,1.6-4v-2.4
		c-0.6,1.1-1.5,1.9-2.6,2.4c-1.1,0.6-2.3,0.8-3.8,0.8c-1.7,0-3.2-0.4-4.5-1.2c-1.3-0.8-2.3-1.9-3-3.3c-0.7-1.4-1.1-3-1.1-4.8
		c0-1.8,0.4-3.4,1.1-4.8c0.7-1.4,1.7-2.4,3-3.2c1.3-0.8,2.8-1.1,4.5-1.1c1.4,0,2.7,0.3,3.7,0.8c1.1,0.6,1.9,1.4,2.6,2.4v-3.1H138.7z
		 M133,158.7c1-1.1,1.5-2.5,1.5-4.2s-0.5-3.1-1.5-4.2c-1-1.1-2.3-1.6-4-1.6s-3,0.5-4,1.6c-1,1.1-1.6,2.5-1.6,4.2
		c0,1.7,0.5,3.1,1.6,4.2c1,1.1,2.4,1.7,4,1.7C130.7,160.3,132,159.8,133,158.7z"/>
	<path class="st0" d="M159.1,147.8c1.5,1.7,2.3,4.1,2.3,7.2c0,0.3,0,0.8-0.1,1.5h-14.5c0.3,1.5,1,2.7,2.1,3.5
		c1.1,0.9,2.3,1.3,3.9,1.3c1,0,2-0.2,3-0.6c0.9-0.4,1.8-0.9,2.4-1.7l2.2,2.3c-1,1-2.1,1.8-3.5,2.4c-1.3,0.6-2.8,0.8-4.5,0.8
		c-1.9,0-3.7-0.4-5.1-1.2c-1.5-0.8-2.6-2-3.4-3.4c-0.8-1.5-1.2-3.1-1.2-5c0-1.9,0.4-3.6,1.2-5.1c0.8-1.5,2-2.6,3.4-3.5
		c1.5-0.8,3.2-1.2,5-1.2C155.3,145.2,157.6,146,159.1,147.8z M157.7,153.5c-0.1-1.5-0.6-2.7-1.5-3.6s-2.2-1.3-3.8-1.3
		c-1.5,0-2.8,0.4-3.8,1.3s-1.6,2.1-1.8,3.6H157.7z"/>
	<path class="st0" d="M176.4,163.3c-1.6,0.9-3.2,1.4-4.7,1.4s-2.8-0.5-3.9-1.4s-1.5-2.3-1.5-4.2v-9.9h-2.7v-3.1h2.7v-5.3h4.1v5.3
		h5.7v3.1h-5.7v9.2c0,1,0.2,1.6,0.5,2c0.3,0.4,0.9,0.6,1.5,0.6c0.8,0,1.7-0.3,2.9-0.8L176.4,163.3z"/>
	<path class="st0" d="M184,138c0.5,0.5,0.7,1.1,0.7,1.8c0,0.7-0.2,1.3-0.7,1.8s-1,0.7-1.7,0.7c-0.7,0-1.3-0.2-1.7-0.7
		s-0.7-1.1-0.7-1.8c0-0.7,0.2-1.3,0.7-1.8c0.5-0.5,1-0.7,1.7-0.7C183,137.3,183.6,137.6,184,138z M180.2,145.3h4.1v19.2h-4.1V145.3z
		"/>
	<path class="st0" d="M206.9,147.2c1.3,1.3,1.9,3.1,1.9,5.4v11.9h-4.1v-10.8c0-1.4-0.4-2.6-1.2-3.4c-0.8-0.8-1.9-1.2-3.4-1.2
		c-1.5,0-2.8,0.5-3.8,1.5c-1,1-1.5,2.2-1.7,3.7v10.2h-4.1v-19.2h4.1v3.7c1.3-2.5,3.6-3.8,7.1-3.8
		C203.9,145.2,205.6,145.8,206.9,147.2z"/>
	<path class="st0" d="M231.6,145.3v17.3c0,1.8-0.4,3.4-1.2,4.8c-0.8,1.3-2,2.4-3.5,3.1c-1.5,0.7-3.2,1.1-5.2,1.1
		c-2.8,0-5.5-0.8-8-2.5l1.8-3c0.9,0.7,1.9,1.2,2.9,1.6c1,0.3,2,0.5,3.1,0.5c1.8,0,3.3-0.5,4.4-1.5s1.6-2.3,1.6-4v-2.4
		c-0.6,1.1-1.5,1.9-2.6,2.4c-1.1,0.6-2.3,0.8-3.8,0.8c-1.7,0-3.2-0.4-4.5-1.2c-1.3-0.8-2.3-1.9-3-3.3c-0.7-1.4-1.1-3-1.1-4.8
		c0-1.8,0.4-3.4,1.1-4.8c0.7-1.4,1.7-2.4,3-3.2c1.3-0.8,2.8-1.1,4.5-1.1c1.4,0,2.7,0.3,3.7,0.8c1.1,0.6,1.9,1.4,2.6,2.4v-3.1H231.6z
		 M226,158.7c1-1.1,1.5-2.5,1.5-4.2s-0.5-3.1-1.5-4.2c-1-1.1-2.3-1.6-4-1.6s-3,0.5-4,1.6c-1,1.1-1.6,2.5-1.6,4.2
		c0,1.7,0.5,3.1,1.6,4.2c1,1.1,2.4,1.7,4,1.7C223.6,160.3,224.9,159.8,226,158.7z"/>
	<path class="st0" d="M77,186.7c-1.3-0.4-2.5-0.6-3.5-0.6c-1.2,0-2.2,0.2-3,0.7c-0.7,0.5-1.1,1.1-1.1,2c0,0.8,0.2,1.4,0.7,1.9
		s1.1,0.9,1.8,1.2c0.7,0.3,1.7,0.6,3,1c1.7,0.5,3.1,1,4.2,1.5c1.1,0.5,2,1.2,2.7,2.2c0.8,1,1.1,2.3,1.1,3.8c0,1.5-0.4,2.8-1.2,3.9
		c-0.8,1.1-1.9,2-3.4,2.6c-1.4,0.6-3.1,0.9-4.9,0.9c-1.9,0-3.8-0.4-5.6-1.1c-1.8-0.7-3.4-1.7-4.7-3l1.8-3.7c1.3,1.2,2.7,2.1,4.2,2.8
		s3,1,4.3,1c1.5,0,2.6-0.3,3.5-0.8c0.8-0.6,1.3-1.3,1.3-2.3c0-0.8-0.2-1.4-0.7-1.9c-0.5-0.5-1.1-0.9-1.9-1.2s-1.8-0.6-3-1
		c-1.7-0.5-3.1-1-4.2-1.5s-1.9-1.2-2.7-2.2c-0.8-1-1.1-2.2-1.1-3.8c0-1.4,0.4-2.7,1.2-3.7c0.8-1.1,1.8-1.9,3.2-2.5s3-0.9,4.8-0.9
		c1.6,0,3.1,0.2,4.7,0.7c1.5,0.5,2.9,1.1,4.1,1.9l-1.8,3.7C79.5,187.7,78.2,187.1,77,186.7z"/>
	<path class="st0" d="M92.7,213.7c-1.1,0.8-2.3,1.1-3.7,1.1c-0.9,0-1.7-0.1-2.4-0.4c-0.7-0.3-1.4-0.7-2.1-1.2l1.8-3.2
		c0.5,0.3,0.9,0.6,1.3,0.7c0.4,0.1,0.8,0.2,1.2,0.2c1.3,0,2.3-0.7,2.9-2.1l0.6-1.4l-7.9-18.9h4.3l5.7,14.5l5.3-14.5h4.1l-8.7,21.8
		C94.6,211.8,93.7,213,92.7,213.7z"/>
	<path class="st0" d="M114.7,192.1c-1-0.3-1.9-0.4-2.8-0.4c-0.9,0-1.5,0.2-2.1,0.5c-0.5,0.3-0.8,0.8-0.8,1.4s0.3,1.1,0.9,1.5
		c0.6,0.3,1.6,0.7,2.9,1.2c1.3,0.4,2.4,0.8,3.2,1.2c0.9,0.4,1.6,1,2.2,1.7c0.6,0.8,0.9,1.8,0.9,3c0,1.9-0.7,3.3-2.1,4.3
		c-1.4,1-3.2,1.5-5.2,1.5c-1.4,0-2.9-0.2-4.2-0.7c-1.4-0.5-2.5-1.1-3.5-2l1.5-3c0.8,0.7,1.8,1.3,3,1.7c1.2,0.4,2.3,0.6,3.4,0.6
		c0.9,0,1.7-0.2,2.3-0.5s0.9-0.9,0.9-1.5c0-0.5-0.2-1-0.5-1.3c-0.3-0.3-0.8-0.6-1.3-0.8s-1.2-0.5-2.2-0.7c-1.3-0.4-2.3-0.8-3.1-1.1
		c-0.8-0.4-1.5-0.9-2.1-1.7c-0.6-0.7-0.9-1.7-0.9-2.9c0-1.8,0.7-3.2,2-4.2c1.3-0.9,3-1.4,5-1.4c1.2,0,2.4,0.2,3.6,0.5
		c1.2,0.3,2.2,0.8,3.1,1.4l-1.5,3.1C116.6,192.8,115.7,192.4,114.7,192.1z"/>
	<path class="st0" d="M134.3,206.5c-1.6,0.9-3.2,1.4-4.7,1.4s-2.8-0.5-3.9-1.4c-1-0.9-1.5-2.3-1.5-4.2v-9.9h-2.7v-3.1h2.7V184h4.1
		v5.3h5.7v3.1h-5.7v9.2c0,1,0.2,1.6,0.5,2c0.3,0.4,0.9,0.6,1.5,0.6c0.8,0,1.7-0.3,2.9-0.8L134.3,206.5z"/>
	<path class="st0" d="M152.6,191c1.5,1.7,2.3,4.1,2.3,7.2c0,0.3,0,0.8-0.1,1.5h-14.5c0.3,1.5,1,2.7,2.1,3.5c1.1,0.9,2.3,1.3,3.9,1.3
		c1,0,2-0.2,3-0.6c0.9-0.4,1.8-0.9,2.4-1.7l2.2,2.3c-1,1-2.1,1.8-3.5,2.4s-2.8,0.8-4.5,0.8c-1.9,0-3.7-0.4-5.1-1.2
		c-1.5-0.8-2.6-2-3.4-3.4c-0.8-1.5-1.2-3.1-1.2-5s0.4-3.6,1.2-5.1c0.8-1.5,2-2.6,3.4-3.5c1.5-0.8,3.2-1.2,5-1.2
		C148.8,188.4,151.1,189.2,152.6,191z M151.2,196.7c-0.1-1.5-0.6-2.7-1.5-3.6c-1-0.9-2.2-1.3-3.8-1.3c-1.5,0-2.8,0.4-3.8,1.3
		c-1,0.9-1.6,2.1-1.8,3.6H151.2z"/>
	<path class="st0" d="M189.2,190.4c1.2,1.3,1.9,3.1,1.9,5.4v11.9H187v-10.8c0-1.5-0.4-2.6-1.2-3.4s-1.9-1.2-3.3-1.2
		c-1.6,0-2.9,0.6-3.8,1.7c-0.9,1.1-1.4,2.5-1.4,4.2v9.5H173v-10.8c0-1.5-0.4-2.6-1.2-3.4c-0.8-0.8-1.9-1.2-3.3-1.2
		c-1.6,0-2.9,0.6-3.9,1.7c-1,1.1-1.4,2.5-1.4,4.2v9.5h-4.1v-19.2h4.1v3.7c1.3-2.6,3.6-3.9,6.9-3.9c1.7,0,3.1,0.4,4.3,1.2
		c1.1,0.8,1.9,1.9,2.4,3.4c1.2-3.1,3.6-4.6,7.3-4.6C186.3,188.4,188,189.1,189.2,190.4z"/>
	<path class="st0" d="M204.8,192.1c-1-0.3-1.9-0.4-2.8-0.4c-0.9,0-1.5,0.2-2.1,0.5c-0.5,0.3-0.8,0.8-0.8,1.4s0.3,1.1,0.9,1.5
		c0.6,0.3,1.6,0.7,2.9,1.2c1.3,0.4,2.4,0.8,3.2,1.2c0.9,0.4,1.6,1,2.2,1.7c0.6,0.8,0.9,1.8,0.9,3c0,1.9-0.7,3.3-2.1,4.3
		c-1.4,1-3.2,1.5-5.2,1.5c-1.4,0-2.9-0.2-4.2-0.7c-1.4-0.5-2.5-1.1-3.5-2l1.5-3c0.8,0.7,1.8,1.3,3,1.7c1.2,0.4,2.3,0.6,3.4,0.6
		c0.9,0,1.7-0.2,2.3-0.5s0.9-0.9,0.9-1.5c0-0.5-0.2-1-0.5-1.3c-0.3-0.3-0.8-0.6-1.3-0.8s-1.2-0.5-2.2-0.7c-1.3-0.4-2.3-0.8-3.1-1.1
		c-0.8-0.4-1.5-0.9-2.1-1.7c-0.6-0.7-0.9-1.7-0.9-2.9c0-1.8,0.7-3.2,2-4.2c1.3-0.9,3-1.4,5-1.4c1.2,0,2.4,0.2,3.6,0.5
		c1.2,0.3,2.2,0.8,3.1,1.4l-1.5,3.1C206.7,192.8,205.8,192.4,204.8,192.1z"/>
</g>
<path class="st3" d="M159.9,31.1c-16,0-29,13-29,29c0,9.7,4.8,18.3,12.2,23.6l23.3-51.8C164.3,31.4,162.1,31.1,159.9,31.1z"/>
</svg>
