<?xml version="1.0" encoding="utf-8"?>
<!-- Generator: Adobe Illustrator 21.0.2, SVG Export Plug-In . SVG Version: 6.00 Build 0)  -->
<svg version="1.1" id="Layer_1" xmlns="http://www.w3.org/2000/svg" xmlns:xlink="http://www.w3.org/1999/xlink" x="0px" y="0px"
	 viewBox="0 0 250 250" style="enable-background:new 0 0 250 250;" xml:space="preserve">
<style type="text/css">
	.st0{fill:#BFBA00;}
	.st1{fill:#4F4F4F;}
	.st2{fill:#FFF800;}
	.st3{fill:#7F7C00;}
</style>
<g>
	<path class="st0" d="M213.5,2c19,0,34.5,15.5,34.5,34.5v177c0,19-15.5,34.5-34.5,34.5h-177C17.5,248,2,232.5,2,213.5v-177
		C2,17.5,17.5,2,36.5,2H213.5 M213.5,0h-177C16.4,0,0,16.4,0,36.5v177C0,233.6,16.4,250,36.5,250h177c20.1,0,36.5-16.4,36.5-36.5
		v-177C250,16.4,233.6,0,213.5,0L213.5,0z"/>
</g>
<g>
	<path class="st1" d="M214.4,152.2c-4.2-32.6-21.8-68.2-22.5-69.7c-0.3-0.6-0.9-1.1-1.4-1.4l-2.7-1.1l-0.9-3.1
		c0-0.3-0.1-0.4-0.3-0.7s-2-3.8-7-5.7c-4.6-1.9-16.3-5.9-23.3-5.9c-2.4,0-4.4,0.4-5.6,1.4c-1,0.4-5.2,4.2-9.3,4.2h-33.7
		c-3.9,0-8.3-3.6-9.3-4.2c-1.4-1-3.2-1.4-5.6-1.4c-7,0-18.7,4.1-23.4,5.9c-5.1,2-6.9,5.5-7,5.7c-0.1,0.1-0.1,0.4-0.3,0.7l-0.9,3.2
		l-2,1.1c-0.6,0.3-1,0.7-1.2,1.2c-0.7,1.5-18.3,37.1-22.5,69.7c-1.5,12.2,0.1,21.2,5.2,27c4.9,5.5,11.4,6.3,14.1,6.3h2.1
		c3.6,0,8.9-2.8,26-21.2c1.7-1.8,3-2.8,3.8-3.6c2.5-2.5,7.7-3.4,11.5-3.4H152c3.8,0,9.1,0.9,11.5,3.4c0.9,0.9,2.1,1.8,3.8,3.6
		c17.1,18.4,22.4,21.2,26,21.2h2.1c2.5,0,9.1-0.7,14.1-6.3C214.3,173.5,216,164.3,214.4,152.2z"/>
	<path class="st0" d="M191.9,82.5c-0.3-0.6-0.9-1.1-1.4-1.4l-1.3-0.5c-0.9-0.4-1.5-1.1-1.8-2l-0.5-1.6c0-0.3-0.1-0.4-0.3-0.7
		s-2-3.8-7-5.7c-4.6-1.9-16.3-5.9-23.3-5.9c-2.4,0-4.4,0.4-5.6,1.4c-1,0.4-5.2,4.2-9.3,4.2h-33.7c-3.9,0-8.3-3.6-9.3-4.2
		c-1.4-1-3.2-1.4-5.6-1.4c-7,0-18.7,4.1-23.4,5.9c-5.1,2-6.9,5.5-7,5.7c-0.1,0.1-0.1,0.4-0.2,0.6L62,77.2l-0.4,1.6
		c-0.2,0.8-0.7,1.5-1.5,1.9l-0.9,0.5c-0.6,0.3-1,0.7-1.2,1.2l0,0c-1,2.6,1.8,5.1,4.3,3.9l5.2-2.5c16-7.6,23.1-4.9,25.1-3.8
		c0.4,0.2,0.6,0.5,0.9,0.8c0.9,1.1,3.5,4.4,8.7,9.5c5.7,5.7,8.4,6.6,9.6,6.6h24.7c1.2,0,3.9-1,9.4-6.6c5.1-5.1,7.7-8.2,8.6-9.4
		c0.2-0.4,0.6-0.6,0.9-0.9c2.2-1.2,9.5-3.9,26.2,4.4l0.4,0.2c0.6,0.2,3.1,1.5,6.2,3c2.6,1.3,5.5-1.4,4.2-4.1
		C192.2,82.9,192,82.6,191.9,82.5z"/>
	<path class="st2" d="M169.2,112.9c-3.9-1.3-7.6,2.4-6.2,6.2c0.5,1.4,1.6,2.5,3,3c3.9,1.3,7.6-2.4,6.2-6.2
		C171.7,114.5,170.6,113.4,169.2,112.9z M180.4,101.7c-3.9-1.3-7.6,2.4-6.2,6.2c0.5,1.4,1.6,2.5,3,3c3.9,1.3,7.6-2.4,6.2-6.2
		C182.9,103.3,181.8,102.1,180.4,101.7z M157.9,101.7c-3.9-1.3-7.6,2.4-6.2,6.2c0.5,1.4,1.6,2.5,3,3c3.9,1.3,7.6-2.4,6.2-6.2
		C160.4,103.3,159.3,102.1,157.9,101.7z M169.2,90.4c-3.9-1.3-7.6,2.4-6.2,6.2c0.5,1.4,1.6,2.5,3,3c3.9,1.3,7.6-2.4,6.2-6.2
		C171.7,92,170.6,90.9,169.2,90.4z"/>
	<path class="st2" d="M114.6,135.1h-3.8c-0.9,0-1.6,0.7-1.6,1.6v4c0,0.9-0.7,1.6-1.6,1.6h-5.2c-0.9,0-1.6-0.7-1.6-1.6v-4
		c0-0.9-0.7-1.6-1.6-1.6h-3.8c-0.9,0-1.6-0.7-1.6-1.6v-5.2c0-0.9,0.7-1.6,1.6-1.6h3.8c0.9,0,1.6-0.7,1.6-1.6v-3.8
		c0-0.9,0.7-1.6,1.6-1.6h5.2c0.9,0,1.6,0.7,1.6,1.6v3.8c0,0.9,0.7,1.6,1.6,1.6h3.8c0.9,0,1.6,0.7,1.6,1.6v5.2
		C116.2,134.4,115.5,135.1,114.6,135.1z"/>
	<path class="st3" d="M141.5,116.9c7.7,0,14.1,6.3,14.1,14.1s-6.3,14.1-14.1,14.1c-7.7,0-14.1-6.3-14.1-14.1
		S133.8,116.9,141.5,116.9z"/>
	<path class="st2" d="M141.5,121.1c5.5,0,9.9,4.4,9.9,9.9s-4.4,9.9-9.9,9.9s-9.9-4.4-9.9-9.9C131.7,125.6,136,121.1,141.5,121.1z"/>
	<path class="st3" d="M79.6,91.5c7.7,0,14.1,6.3,14.1,14.1s-6.3,14.1-14.1,14.1s-14.1-6.3-14.1-14.1S71.9,91.5,79.6,91.5z"/>
	<path class="st2" d="M79.6,95.8c5.5,0,9.9,4.4,9.9,9.9s-4.4,9.9-9.9,9.9c-5.5,0-9.9-4.4-9.9-9.9C69.8,100.3,74.1,95.8,79.6,95.8z"
		/>
	<path class="st0" d="M141.5,125.3c3.1,0,5.6,2.5,5.6,5.6s-2.5,5.6-5.6,5.6s-5.6-2.5-5.6-5.6S138.4,125.3,141.5,125.3z M79.6,100
		c3.1,0,5.6,2.5,5.6,5.6s-2.5,5.6-5.6,5.6c-3.1,0-5.6-2.5-5.6-5.6C74,102.5,76.5,100,79.6,100z"/>
</g>
</svg>
