<?xml version="1.0" encoding="utf-8"?>
<!-- Generator: Adobe Illustrator 21.0.2, SVG Export Plug-In . SVG Version: 6.00 Build 0)  -->
<svg version="1.1" id="Layer_1" xmlns="http://www.w3.org/2000/svg" xmlns:xlink="http://www.w3.org/1999/xlink" x="0px" y="0px"
	 viewBox="0 0 250 250" style="enable-background:new 0 0 250 250;" xml:space="preserve">
<style type="text/css">
	.st0{fill:#D1BE51;}
</style>
<g>
	<path class="st0" d="M213.5,2c19,0,34.5,15.5,34.5,34.5v177c0,19-15.5,34.5-34.5,34.5h-177C17.5,248,2,232.5,2,213.5v-177
		C2,17.5,17.5,2,36.5,2H213.5 M213.5,0h-177C16.4,0,0,16.4,0,36.5v177C0,233.6,16.4,250,36.5,250h177c20.1,0,36.5-16.4,36.5-36.5
		v-177C250,16.4,233.6,0,213.5,0L213.5,0z"/>
</g>
<path id="path8" class="st0" d="M83.7,76.1C69,93,71.8,106.9,71.8,106.9l0,0c0,0,4-9.6,13.8-19.7l0,0c4.7-4.7,8.1-6.3,10.5-6.4l0,0
	c2.6,0,3.9,1.9,3.9,3.7l0,0v34.2c0,3.3-2.2,4.1-4.2,4l0,0c-1.7,0-3.2-0.6-3.2-0.6l0,0c10,14.5,33.9,16.6,33.9,16.6l0,0l10.5-11.2
	l0.3,0.2l9.7,8.2c17.6-10.5,26.1-29.9,26.1-29.9l0,0c-7.8,8.3-12.8,10.3-15.8,10.2l0,0c-2.6,0-3.7-1.6-3.7-1.6l0,0
	c-0.2-0.7-0.4-11.2-0.4-21.5l0,0c-0.1-10.8,0-21.5,0.5-21.6l0,0c3.1-5.7,12.7-17.2,12.7-17.2l0,0c-18.1,3.6-27.9,15.5-27.9,15.5l0,0
	c-2.9-2.3-8.9-1.9-8.9-1.9l0,0c2.8,1.5,5.5,6,5.5,9.7l0,0V114c0,0-6.1,5.4-10.7,5.4l0,0c-2.8,0-4.5-1.5-5.4-2.7l0,0
	c-0.6-0.9-0.9-1.6-0.9-1.6l0,0v-45c-0.6,0.4-1.4,0.8-2.2,0.8l0,0c-1,0-2-0.5-2.7-1.9l0,0c-0.5-1.1-0.9-2.7-0.9-5.2l0,0
	c0-8.3,9.4-13.8,9.4-13.8l0,0C109.3,53.2,98.3,59.3,83.7,76.1"/>
<path id="path10" class="st0" d="M51.9,94.5c0,40.7,32.7,73.6,73,73.6l0,0c40.3,0,73-32.9,73-73.6l0,0c0-40.7-32.7-73.6-73-73.6l0,0
	C84.6,20.9,51.9,53.8,51.9,94.5 M75.5,144.3C62.3,131,55,113.3,55,94.5l0,0c0-18.8,7.3-36.5,20.5-49.8l0,0
	C88.7,31.4,106.2,24,124.9,24l0,0c18.6,0,36.2,7.3,49.4,20.6l0,0c13.2,13.3,20.5,31,20.5,49.8l0,0c0,18.8-7.3,36.5-20.5,49.8l0,0
	c-13.2,13.3-30.7,20.6-49.4,20.6l0,0C106.2,164.9,88.7,157.6,75.5,144.3"/>
<path id="path12" class="st0" d="M72.4,214.6V229H88v-3.2H76.6v-2.5h10.6v-3H76.6v-2.5h11.2v-3.2H72.4L72.4,214.6z"/>
<path id="path14" class="st0" d="M105.1,214.6v10.7H105l-8.3-10.7h-6.4V229h4.1v-10.7h0.1l8.3,10.7h6.3v-14.3
	C109.2,214.6,105.1,214.6,105.1,214.6z"/>
<path id="path16" class="st0" d="M121.4,214.5c-1.3,0-2.5,0-3.4,0.1l0,0c-1,0.1-1.8,0.2-2.5,0.4l0,0c-0.7,0.2-1.2,0.4-1.7,0.8l0,0
	c-0.4,0.4-0.8,0.8-1,1.2l0,0c-0.3,0.5-0.4,1.1-0.4,1.9l0,0c-0.1,0.8-0.1,1.7-0.1,2.6l0,0v0.4c0,1.1,0,1.9,0.1,2.6l0,0
	c0.1,0.7,0.3,1.4,0.4,1.9l0,0c0.3,0.5,0.5,1,1,1.3l0,0c0.4,0.4,1,0.6,1.7,0.8l0,0c0.7,0.2,1.5,0.4,2.5,0.4l0,0
	c1,0.1,2.1,0.1,3.4,0.1l0,0h0.6c1.1,0,2.1,0,3-0.1l0,0c0.9-0.1,1.6-0.2,2.2-0.4l0,0c0.6-0.2,1.1-0.4,1.5-0.6l0,0
	c0.4-0.3,0.7-0.5,1-1l0,0c0.3-0.4,0.4-0.8,0.5-1.3l0,0c0.1-0.5,0.2-1.1,0.2-1.8l0,0v-3.2h-9.7v2.7h5.4v0.4c0,0.3,0,0.4-0.1,0.7l0,0
	c0,0.2-0.1,0.4-0.2,0.5l0,0c-0.1,0.2-0.3,0.3-0.4,0.4l0,0c-0.2,0.1-0.4,0.2-0.8,0.2l0,0c-0.4,0.1-0.7,0.1-1.1,0.1l0,0
	c-0.4,0-1.1,0-1.7,0l0,0h-0.3c-0.8,0-1.5,0-2,0l0,0c-0.5,0-1.1-0.1-1.4-0.2l0,0c-0.4-0.1-0.7-0.3-0.9-0.4l0,0
	c-0.2-0.2-0.4-0.4-0.5-0.7l0,0c-0.1-0.3-0.2-0.6-0.2-1.1l0,0c0-0.4-0.1-1-0.1-1.5l0,0v-0.3c0-0.6,0-1.1,0.1-1.6l0,0
	c0-0.4,0.1-0.8,0.2-1.1l0,0c0.1-0.3,0.3-0.5,0.5-0.7l0,0c0.2-0.2,0.5-0.3,0.9-0.4l0,0c0.4-0.1,0.9-0.2,1.4-0.2l0,0c0.5,0,1.2,0,2,0
	l0,0h0.4c0.9,0,1.6,0,2.1,0.1l0,0c0.5,0.1,1,0.2,1.2,0.3l0,0c0.3,0.2,0.5,0.4,0.6,0.5l0,0c0.1,0.3,0.2,0.5,0.2,0.8l0,0v0.2h4v-0.5
	c0-0.6-0.1-1.1-0.1-1.7l0,0c-0.1-0.4-0.3-0.9-0.4-1.2l0,0c-0.3-0.4-0.5-0.6-0.9-0.8l0,0c-0.4-0.2-0.9-0.4-1.5-0.5l0,0
	c-0.6-0.1-1.3-0.2-2.1-0.3l0,0c-0.8-0.1-1.8-0.1-2.9-0.1l0,0L121.4,214.5L121.4,214.5z"/>
<path id="path18" class="st0" d="M155.1,214.7v10.6H155l-8.2-10.6h-6.3V229h4.1v-10.6h0.1L153,229h6.2v-14.2h-4.1V214.7z"/>
<path id="path20" class="st0" d="M162.5,214.7V229H178v-3.2h-11.3v-2.5h10.5v-3h-10.5v-2.5h11.1v-3.2L162.5,214.7L162.5,214.7z"/>
<path id="path22" class="st0" d="M48.4,181.6v13.8c0,0.9,0,1.6-0.1,2.2l0,0c-0.1,0.6-0.2,1.1-0.4,1.6l0,0c-0.2,0.4-0.4,0.8-0.8,1.1
	l0,0c-0.4,0.3-0.8,0.4-1.4,0.6l0,0c-0.5,0.2-1.2,0.3-2.1,0.3l0,0c-0.8,0.1-1.8,0.1-3,0.1l0,0H40c-1.1,0-2.1,0-3-0.1l0,0
	c-0.8-0.1-1.5-0.2-2.1-0.3l0,0c-0.5-0.2-1.1-0.4-1.4-0.6l0,0c-0.4-0.3-0.6-0.6-0.8-1.1l0,0c-0.2-0.4-0.3-1-0.4-1.6l0,0
	c-0.1-0.6-0.1-1.3-0.1-2.2l0,0v-13.8H25v16.2c0,1.2,0.1,2.4,0.3,3.2l0,0c0.2,1,0.5,1.8,0.9,2.5l0,0c0.4,0.7,1.1,1.2,1.8,1.7l0,0
	c0.7,0.4,1.7,0.8,2.7,1.1l0,0c1.1,0.3,2.5,0.4,4,0.5l0,0c1.5,0.1,3.3,0.2,5.4,0.2l0,0h0.8c2,0,3.9-0.1,5.4-0.2l0,0
	c1.6-0.1,2.9-0.3,4-0.5l0,0c1.1-0.3,2-0.6,2.7-1.1l0,0c0.7-0.4,1.3-1.1,1.8-1.7l0,0c0.4-0.7,0.7-1.5,0.9-2.5l0,0
	c0.2-1,0.3-2,0.3-3.2l0,0v-16.2C55.7,181.6,48.4,181.6,48.4,181.6z"/>
<path id="path24" class="st0" d="M86.5,181.6v18.8h-0.2L72,181.6H60.7v25H68v-18.7h0.2l14.5,18.7h11.1v-25H86.5z"/>
<path id="path26" class="st0" d="M98.8,181.6v25h7.3v-6.9h7.4c1.1,0,2.1,0,3,0.1l0,0c0.8,0,1.5,0.1,2.1,0.3l0,0
	c0.5,0.1,1.1,0.3,1.4,0.5l0,0c0.4,0.3,0.6,0.5,0.8,0.9l0,0c0.2,0.4,0.4,0.8,0.4,1.3l0,0c0.1,0.5,0.1,1.1,0.1,1.9l0,0v2h7.3v-3.9
	c0-1.1-0.1-2-0.2-2.7l0,0c-0.1-0.7-0.4-1.3-0.6-1.8l0,0c-0.4-0.4-0.8-0.8-1.3-1l0,0c-0.5-0.3-1.3-0.4-2.2-0.5l0,0v-0.2
	c0.8-0.2,1.5-0.4,2-0.8l0,0c0.5-0.4,1-0.8,1.3-1.3l0,0c0.4-0.5,0.6-1.1,0.8-1.9l0,0c0.2-0.7,0.3-1.6,0.3-2.5l0,0v-0.9
	c0-1.4-0.2-2.6-0.4-3.6l0,0c-0.3-1-0.8-1.8-1.6-2.4l0,0c-0.8-0.6-1.8-1.1-3.1-1.2l0,0c-1.3-0.3-3-0.4-5-0.4l0,0L98.8,181.6
	L98.8,181.6z M106.1,187.1h9.2c1.2,0,2.3,0,3,0.1l0,0c0.8,0.1,1.3,0.3,1.8,0.4l0,0c0.4,0.3,0.6,0.5,0.8,1l0,0c0.1,0.4,0.2,1,0.2,1.8
	l0,0v0.4c0,0.7-0.1,1.3-0.2,1.8l0,0c-0.1,0.4-0.4,0.8-0.8,1.1l0,0c-0.4,0.3-1,0.4-1.8,0.5l0,0c-0.8,0.1-1.8,0.1-3.1,0.1l0,0h-9.1
	V187.1L106.1,187.1z"/>
<path id="path28" class="st0" d="M133.2,181.6v25h27.2v-5.7h-19.9v-4.3h18.4v-5.3h-18.4V187H160v-5.4H133.2z"/>
<path id="path30" class="st0" d="M175.5,181.6l-13.4,25h7.9l2.3-4.5h15.6l2.3,4.5h8l-13.6-25H175.5L175.5,181.6z M179.9,186.9h0.2
	l5.1,10.1h-10.4L179.9,186.9z"/>
<path id="path32" class="st0" d="M200.8,181.6v25H225v-5.8h-16.8v-19.2H200.8z"/>
<path id="path34" class="st0" d="M133.2,229h4.2v-14.2h-4.2V229z"/>
</svg>
